<svg preserveAspectRatio="none" width="100%" height="100%" overflow="visible" style="display: block;" viewBox="0 0 14.4 14.4" fill="none" xmlns="http://www.w3.org/2000/svg">
<path id="Icon" d="M7.2002 0.75C10.7623 0.750106 13.6504 3.63802 13.6504 7.2002C13.6503 10.7623 10.7623 13.6503 7.2002 13.6504C3.63802 13.6504 0.750106 10.7623 0.75 7.2002C0.75 3.63796 3.63796 0.75 7.2002 0.75ZM7.21484 4.02734C6.70856 3.68992 6.05793 3.65822 5.52148 3.94531C4.98498 4.23244 4.65039 4.79188 4.65039 5.40039V9C4.65039 9.60851 4.98498 10.1679 5.52148 10.4551C6.05783 10.742 6.70863 10.7103 7.21484 10.373L9.91504 8.57324C10.374 8.26726 10.6503 7.7518 10.6504 7.2002C10.6504 6.64851 10.3741 6.13317 9.91504 5.82715L7.21484 4.02734Z" fill="var(--fill-0, #12141D)" stroke="var(--stroke-0, #12141D)" stroke-width="1.5"/>
</svg>
