<svg preserveAspectRatio="none" width="100%" height="100%" overflow="visible" style="display: block;" viewBox="0 0 123.001 30.1967" fill="none" xmlns="http://www.w3.org/2000/svg">
<g id="trustpilot-1 1">
<path id="Vector" d="M90.6715 19.4955H78.228V17.179H83.1275V4.12049H85.813V17.179H90.692L90.6715 19.4955ZM78.761 15.252H76.465V13.0995H76.424C76.342 13.407 76.1985 13.694 75.9935 13.981C75.7885 14.268 75.5425 14.5345 75.235 14.76C74.948 15.006 74.62 15.1905 74.251 15.334C73.9025 15.4775 73.5335 15.5595 73.1645 15.5595C72.8775 15.5595 72.6725 15.539 72.57 15.539C72.4675 15.5185 72.3445 15.498 72.242 15.498V13.1405C72.406 13.1815 72.5905 13.202 72.775 13.2225C72.9595 13.243 73.1235 13.2635 73.308 13.2635C73.718 13.2635 74.1075 13.1815 74.4765 13.0175C74.8455 12.8535 75.153 12.6075 75.44 12.3C75.7065 11.972 75.932 11.5825 76.096 11.111C76.26 10.6395 76.342 10.086 76.342 9.47099V4.182H78.802L78.761 15.252ZM60.967 4.12049H63.386V5.67849H63.427C63.7345 5.10449 64.1855 4.67399 64.78 4.32549C65.3745 3.97699 65.9895 3.81299 66.6045 3.81299C68.06 3.81299 69.126 4.1615 69.782 4.8995C70.438 5.617 70.766 6.724 70.766 8.17949V15.252H68.306V8.42549C68.306 7.44149 68.1215 6.7445 67.732 6.355C67.363 5.945 66.83 5.74 66.1535 5.74C65.641 5.74 65.2105 5.82199 64.862 5.98599C64.5135 6.14999 64.2265 6.35499 64.0215 6.62149C63.796 6.88799 63.6525 7.216 63.55 7.585C63.4475 7.954 63.4065 8.36399 63.4065 8.79449V15.252H60.9465V4.12049H60.967ZM56.785 7.6875C56.703 6.97 56.4365 6.47799 55.965 6.17049C55.4935 5.88349 54.9195 5.74 54.2635 5.74C54.038 5.74 53.7715 5.76049 53.4845 5.80149C53.1975 5.84249 52.9105 5.90399 52.6645 6.00649C52.398 6.10899 52.193 6.2525 52.029 6.4575C51.865 6.6625 51.783 6.90849 51.8035 7.21599C51.824 7.52349 51.9265 7.79 52.152 7.995C52.3775 8.2 52.644 8.34349 52.972 8.48699C53.3 8.60999 53.6895 8.71249 54.12 8.79449C54.5505 8.87649 54.981 8.97899 55.432 9.08149C55.883 9.18399 56.334 9.30699 56.7645 9.45049C57.195 9.59399 57.564 9.7785 57.9125 10.045C58.2405 10.291 58.5275 10.5985 58.712 10.988C58.917 11.3775 59.0195 11.8285 59.0195 12.4025C59.0195 13.0175 58.876 13.5095 58.5685 13.9195C58.2815 14.3295 57.892 14.6575 57.441 14.9035C56.99 15.1495 56.4775 15.334 55.924 15.4365C55.3705 15.539 54.8375 15.58 54.3455 15.58C53.7715 15.58 53.218 15.5185 52.7055 15.3955C52.193 15.2725 51.701 15.088 51.291 14.801C50.8605 14.5345 50.512 14.1655 50.2455 13.735C49.9585 13.3045 49.7945 12.7715 49.7125 12.1565H52.275C52.398 12.751 52.6645 13.1405 53.0745 13.3455C53.505 13.5505 53.9765 13.653 54.53 13.653C54.694 13.653 54.9195 13.6325 55.145 13.612C55.391 13.571 55.596 13.53 55.8215 13.448C56.0265 13.366 56.211 13.243 56.3545 13.0995C56.498 12.956 56.58 12.751 56.58 12.505C56.58 12.1975 56.4775 11.972 56.2725 11.7875C56.0675 11.603 55.801 11.4595 55.4525 11.316C55.1245 11.193 54.735 11.0905 54.3045 11.0085C53.874 10.9265 53.423 10.824 52.972 10.7215C52.521 10.619 52.0905 10.496 51.66 10.3525C51.2295 10.209 50.84 10.0245 50.512 9.75799C50.184 9.51199 49.897 9.20449 49.692 8.83549C49.487 8.46649 49.3845 7.99499 49.3845 7.462C49.3845 6.806 49.528 6.25249 49.8355 5.78099C50.143 5.32999 50.5325 4.94049 51.004 4.65349C51.4755 4.36649 52.029 4.16149 52.603 4.01799C53.1975 3.89499 53.7715 3.81299 54.3455 3.81299C55.0425 3.81299 55.6985 3.895 56.293 4.059C56.8875 4.223 57.4205 4.469 57.851 4.77649C58.2815 5.10449 58.63 5.49399 58.876 5.98599C59.122 6.45749 59.2655 7.03149 59.286 7.70799H56.8055V7.6875H56.785ZM48.6875 15.252H46.822V18.614H44.362V15.2725H42.148V13.448H44.362V7.50299C44.362 7.23649 44.3415 7.03149 44.321 6.82649C44.3005 6.64199 44.239 6.478 44.1775 6.355C44.0955 6.232 43.9725 6.12949 43.829 6.06799C43.665 6.00649 43.46 5.96549 43.173 5.96549C43.009 5.96549 42.8245 5.96549 42.6605 5.98599C42.4965 6.00649 42.312 6.02699 42.148 6.06799V4.1615C42.4145 4.1205 42.681 4.1 42.9475 4.0795C43.214 4.0385 43.46 4.03849 43.747 4.03849C44.403 4.03849 44.9155 4.09999 45.305 4.22299C45.6945 4.34599 46.002 4.53049 46.2275 4.75599C46.453 5.00199 46.5965 5.289 46.6785 5.6375C46.7605 5.986 46.8015 6.4165 46.822 6.8675V13.4275H48.6875V15.293V15.252ZM40.426 15.252H38.1095V13.735H38.0685C37.72 14.391 37.2485 14.842 36.6335 15.129C36.0185 15.416 35.3625 15.5595 34.6245 15.5595C33.743 15.5595 32.9845 15.416 32.3285 15.088C31.6725 14.7805 31.1395 14.3705 30.709 13.817C30.2785 13.284 29.9505 12.6485 29.7455 11.931C29.5405 11.2135 29.4175 10.4345 29.4175 9.635C29.4175 8.8765 29.52 8.15899 29.7045 7.462C29.9095 6.765 30.1965 6.12949 30.586 5.59649C30.9755 5.06349 31.4675 4.633 32.0825 4.305C32.6975 3.977 33.3945 3.81299 34.2145 3.81299C34.563 3.81299 34.932 3.85399 35.2805 3.91549C35.629 3.97699 35.9775 4.07949 36.3055 4.22299C36.6335 4.36649 36.941 4.551 37.2075 4.77649C37.4945 5.00199 37.72 5.26849 37.9045 5.55549H37.9455V0H40.4055V15.252H40.426ZM31.8365 9.67599C31.8365 10.168 31.898 10.66 32.0415 11.1315C32.1645 11.603 32.3695 12.013 32.636 12.382C32.9025 12.751 33.2305 13.038 33.5995 13.2635C33.989 13.489 34.44 13.5915 34.932 13.5915C35.957 13.5915 36.736 13.243 37.269 12.5255C37.7815 11.808 38.048 10.8445 38.048 9.65549C38.048 9.08149 37.9865 8.569 37.843 8.0975C37.6995 7.626 37.515 7.216 37.228 6.8675C36.9615 6.519 36.6335 6.2525 36.244 6.0475C35.8545 5.8425 35.424 5.74 34.9115 5.74C34.3375 5.74 33.8865 5.86299 33.497 6.08849C33.1075 6.31399 32.8 6.6215 32.5335 6.97C32.2875 7.339 32.103 7.74899 32.0005 8.22049C31.898 8.71249 31.8365 9.18399 31.8365 9.67599ZM27.511 19.4955H25.051V17.179H27.511V19.4955ZM27.511 15.252H25.051V4.12049H27.511V15.252ZM22.8575 19.4955H20.3975V4.12049H22.8575V19.4955ZM12.8945 3.81299C13.776 3.81299 14.5755 3.9565 15.2725 4.264C15.9695 4.5715 16.5435 4.96099 17.0355 5.47349C17.507 5.98599 17.876 6.62149 18.122 7.33899C18.368 8.05649 18.5115 8.85599 18.5115 9.69649C18.5115 10.537 18.3885 11.316 18.122 12.0335C17.876 12.751 17.507 13.366 17.0355 13.899C16.564 14.4115 15.9695 14.8215 15.2725 15.1085C14.5755 15.3955 13.776 15.5595 12.8945 15.5595C12.013 15.5595 11.2135 15.416 10.5165 15.1085C9.81949 14.8215 9.24549 14.4115 8.75349 13.899C8.28199 13.3865 7.913 12.751 7.667 12.0335C7.421 11.316 7.2775 10.537 7.2775 9.69649C7.2775 8.83549 7.4005 8.05649 7.667 7.33899C7.9335 6.62149 8.28199 6.00649 8.75349 5.47349C9.22499 4.96099 9.81949 4.551 10.5165 4.264C11.2135 3.977 11.9925 3.81299 12.8945 3.81299ZM12.8945 5.76049C12.3615 5.76049 11.8695 5.88349 11.48 6.10899C11.07 6.33449 10.7625 6.64199 10.496 7.01099C10.2295 7.37999 10.045 7.81049 9.922 8.26149C9.799 8.73299 9.7375 9.20449 9.7375 9.69649C9.7375 10.168 9.799 10.6395 9.922 11.111C10.045 11.5825 10.2295 11.9925 10.496 12.3615C10.7625 12.7305 11.0905 13.0175 11.48 13.243C11.89 13.4685 12.3615 13.5915 12.8945 13.5915C13.4275 13.5915 13.9195 13.4685 14.309 13.243C14.719 13.0175 15.0265 12.71 15.293 12.3615C15.5595 11.9925 15.744 11.5825 15.867 11.111C15.99 10.6395 16.0515 10.168 16.0515 9.69649C16.0515 9.20449 15.99 8.73299 15.867 8.26149C15.744 7.78999 15.5595 7.37999 15.293 7.01099C15.0265 6.64199 14.6985 6.33449 14.309 6.10899C13.899 5.86299 13.4275 5.76049 12.8945 5.76049ZM6.5395 15.252H4.674V18.614H2.214V15.2725H0V13.448H2.214V7.50299C2.214 7.23649 2.19349 7.03149 2.17299 6.82649C2.15249 6.64199 2.091 6.478 2.0295 6.355C1.9475 6.232 1.8245 6.12949 1.681 6.06799C1.517 6.00649 1.312 5.96549 1.025 5.96549C0.861002 5.96549 0.676497 5.96549 0.512497 5.98599C0.348497 6.00649 0.164 6.02699 0 6.06799V4.1615C0.2665 4.1205 0.533 4.1 0.7995 4.0795C1.066 4.0385 1.31199 4.03849 1.59899 4.03849C2.25499 4.03849 2.76751 4.09999 3.15701 4.22299C3.54651 4.34599 3.854 4.53049 4.0795 4.75599C4.305 5.00199 4.44849 5.289 4.53049 5.6375C4.61249 5.986 4.6535 6.4165 4.674 6.8675V13.4275H6.5395V15.293V15.252Z" fill="var(--fill-0, black)"/>
<path id="Vector_2" d="M93.5421 19.4957H104.797L108.261 30.1967L111.746 19.4957L123.001 19.5162L113.899 12.8947L117.384 2.19367L108.282 8.81517L99.1796 2.19367L102.644 12.8947L93.5421 19.4957Z" fill="var(--fill-0, #00B67A)"/>
<path id="Vector_3" d="M101.864 10.4759L102.643 12.8949L108.26 8.8154L101.864 10.4759Z" fill="var(--fill-0, #005128)"/>
</g>
</svg>
